# xmcd
#
# Track frame offsets:
#	150
#	21609
#	45317
#	66399
#	87161
#	111972
#	129946
#	158265
#	180242
#	207761
#
# Disc length: 3038 seconds
#
# Revision: 1
# Processed by: cddbd v1.5.2PL0 Copyright (c) Steve Scherf et al.
# Submitted via: EasyCDDAExtractor 16.0.4.1
#
DISCID=770bdc0a
DTITLE=Cẩm Ly - Gió Lên
DYEAR=2010
DGENRE=Pop
TTITLE0=Cẩm Ly - Gió Lên
TTITLE1=Cẩm Ly - Ngưu Lang Chức Nữ
TTITLE2=Cẩm Ly - Mai Mốt Anh Về
TTITLE3=Cẩm Ly - Thía Hai Lúa
TTITLE4=Cẩm Ly - Bậu Đi Theo Người
TTITLE5=Cẩm Ly, Quốc Đại - Mối Duyên Quê
TTITLE6=Cẩm Ly - Câu Hát Lý Theo Chồng
TTITLE7=Cẩm Ly - Tết Quê Hương
TTITLE8=Cẩm Ly - Hẹn Mùa Trăng Sau
TTITLE9=Cẩm Ly - Vầng Trăng Tao Ngộ
EXTD=
EXTT0=
EXTT1=
EXTT2=
EXTT3=
EXTT4=
EXTT5=
EXTT6=
EXTT7=
EXTT8=
EXTT9=
PLAYORDER=
